<?xml version="1.0" encoding="UTF-8"?>
<svg id="Layer_1" data-name="Layer 1" xmlns="http://www.w3.org/2000/svg" viewBox="0 0 511.05 507.43">
  <path d="M188.64,2.49c-51.96,7.83-100.74,34.12-135.61,74.87-23.28,27.2-39.69,60.37-47.65,95.82C1.18,191.91-.53,210.72.14,229.21c.96,26.33,7,54.11,19.37,82.2,11.58,26.28,27.17,47.96,37.82,58.65,15.42,15.48,33.67,27.64,53.86,36.13v101.24l32.74-20.29,49.79-30.46,76.66-46.78c10.09-6.17,13.77-19.12,7.86-29.35-5.9-10.24-19.12-13.77-29.35-7.86-7.9,4.56-33.87,20.28-49.1,29.54v-.07l-9.12,5.62-.02.02c-12.16,7.52-24.28,15.11-36.5,22.63v-59.27l-18.13-2.89c-17.18-5.35-32.87-14.11-46.15-26.06-10.69-9.62-25.04-28.59-35.3-54.89-8.87-22.74-12.98-46.36-12.57-69.11.73-40.61,15.35-83.8,46.08-117.81,36.46-40.35,90.28-62.4,145.04-58.64,42.31,2.91,81.89,21,112.57,50.27h55.5c-23.54-32.79-55.57-58.51-92.68-74.35C270.62,1.48,229.01-3.6,188.64,2.49Z" fill="#52ba63"/>
  <path d="M117.81,220.8c-11.86,0-21.48,9.62-21.48,21.48s9.62,21.48,21.48,21.48,21.49-9.62,21.49-21.48-9.62-21.48-21.49-21.48M348.88,134.87h98.72c11.83,0,21.49,9.66,21.49,21.49s-9.67,21.48-21.49,21.48h-98.72c-11.81,0-21.48-9.67-21.48-21.48s9.66-21.49,21.48-21.49ZM392.66,220.8h96.9c11.81,0,21.49,9.67,21.49,21.48s-9.67,21.48-21.49,21.48h-96.9c-11.8,0-21.48-9.66-21.48-21.48s9.68-21.48,21.48-21.48ZM298.94,220.8c-11.88,0-21.5,9.62-21.5,21.48s9.62,21.48,21.5,21.48,21.48-9.62,21.48-21.48-9.62-21.48-21.48-21.48ZM349.8,306.72h96.89c11.82,0,21.49,9.66,21.49,21.47s-9.67,21.49-21.49,21.49h-96.89c-11.83,0-21.49-9.66-21.49-21.49s9.67-21.47,21.49-21.47ZM208.37,220.8c-11.86,0-21.48,9.62-21.48,21.48s9.62,21.48,21.48,21.48,21.49-9.62,21.49-21.48-9.61-21.48-21.49-21.48Z" fill="#085e54"/>
</svg>