<?xml version="1.0" encoding="UTF-8"?>
<svg id="Layer_1" data-name="Layer 1" xmlns="http://www.w3.org/2000/svg" viewBox="0 0 528.81 584.18">
  <path d="M502.18,180.43h-61.39v63.01h-42.88v-63.01h-61.39v-39.63h61.39v-63.01h42.88v63.01h61.39v39.63Z"/>
  <g>
    <path d="M369.91,380.45c-5.69-3.42-37.56-19.35-43.25-20.49-5.69-2.28-10.24-3.42-13.66,2.28-4.55,6.83-17.07,20.49-20.49,25.04-3.41,4.55-6.83,4.55-13.66,2.28-36.42-19.35-61.46-34.15-85.36-75.12-6.83-11.38,5.69-11.38,18.21-35.28,2.28-3.41,1.14-7.97-1.14-10.24-1.14-3.41-13.66-35.28-19.35-47.8-4.55-11.38-10.24-10.24-13.66-10.24h-12.52c-3.41,0-10.24,1.14-17.07,7.97-5.69,5.69-21.63,21.63-21.63,52.36s22.76,61.46,26.18,64.88c2.28,4.55,44.39,68.29,106.99,95.61,40.97,17.07,55.77,19.35,76.26,15.93,12.52-2.28,37.56-14.8,42.11-29.59,5.69-14.8,5.69-28.45,4.55-30.73-2.28-2.28-5.69-4.55-12.52-6.83Z"/>
    <path d="M502.56,268.23h-44.12c6.06,18.84,9.35,38.56,9.35,58.73,0,116.09-96.75,210.56-212.84,210.56-37.56,0-75.12-10.24-106.99-29.59l-7.97-4.55-79.67,20.49,21.63-77.4-4.55-7.97c-21.63-33.01-33.01-71.71-33.01-111.54,0-116.09,94.47-209.43,210.56-209.43,22.18,0,44,3.43,64.67,10.06l.23-44.91c-20.96-5.54-42.74-8.4-64.9-8.4C116.09,74.28,2.28,188.09,2.28,326.95c0,44.39,11.38,87.64,34.15,126.34L0,584.18l134.31-35.28c36.42,20.49,78.53,30.73,120.65,30.73,138.86,0,254.95-112.68,254.95-252.68,0-19.99-2.54-39.67-7.34-58.73Z"/>
  </g>
</svg>